<?xml version="1.0" encoding="UTF-8"?>
<svg width="200" height="100" viewBox="0 0 200 100" fill="none" xmlns="http://www.w3.org/2000/svg">
  <defs>
    <linearGradient id="infinityGrad" x1="0%" y1="50%" x2="100%" y2="50%">
      <stop offset="0%" style="stop-color:#00D4FF;stop-opacity:1" />
      <stop offset="50%" style="stop-color:#0099FF;stop-opacity:1" />
      <stop offset="100%" style="stop-color:#0066CC;stop-opacity:1" />
    </linearGradient>
  </defs>
  
  <!-- Smooth Flowing Infinity Symbol -->
  <path d="M 40 50 
           C 40 35, 48 25, 60 25 
           C 72 25, 82 35, 85 45
           C 88 55, 95 60, 105 60
           C 115 60, 125 52, 125 45
           C 125 38, 118 30, 108 30
           C 98 30, 88 38, 85 48
           C 82 58, 75 68, 65 72
           C 55 76, 45 73, 40 65
           C 35 57, 33 48, 35 40
           C 37 32, 42 25, 52 22
           C 62 19, 72 22, 80 28
           C 88 34, 95 42, 100 50
           C 105 58, 112 65, 122 68
           C 132 71, 142 68, 148 62
           C 154 56, 158 48, 158 40
           C 158 25, 145 15, 130 15
           C 115 15, 102 25, 98 35
           C 94 45, 88 52, 80 54
           C 72 56, 64 53, 58 48
           C 52 43, 48 36, 48 28
           C 48 20, 53 12, 62 10
           C 71 8, 80 12, 85 20
           Z" 
        fill="url(#infinityGrad)" 
        opacity="0.95"/>
</svg>
