<?xml version="1.0" encoding="UTF-8"?>
<svg width="800" height="450" viewBox="0 0 800 450" fill="none" xmlns="http://www.w3.org/2000/svg">
  <!-- STRATEGIC DIGITAL DOMINANCE -->
  <text x="400" y="50" font-family="Arial, sans-serif" font-size="16" font-weight="400" letter-spacing="10" fill="#00D4FF" text-anchor="middle">
    STRATEGIC DIGITAL DOMINANCE
  </text>
  
  <!-- PLM (Large) with Silver Gradient -->
  <defs>
    <linearGradient id="silverGradient" x1="0%" y1="0%" x2="0%" y2="100%">
      <stop offset="0%" style="stop-color:#FFFFFF;stop-opacity:1" />
      <stop offset="50%" style="stop-color:#D0D0D0;stop-opacity:1" />
      <stop offset="100%" style="stop-color:#808080;stop-opacity:1" />
    </linearGradient>
    <linearGradient id="infinityGradient" x1="0%" y1="50%" x2="100%" y2="50%">
      <stop offset="0%" style="stop-color:#00D4FF;stop-opacity:1" />
      <stop offset="50%" style="stop-color:#0099FF;stop-opacity:1" />
      <stop offset="100%" style="stop-color:#0066CC;stop-opacity:1" />
    </linearGradient>
  </defs>
  
  <text x="400" y="210" font-family="Impact, Arial Black, sans-serif" font-size="180" font-weight="900" fill="url(#silverGradient)" text-anchor="middle">
    PLM
  </text>
  
  <!-- PREMIER LEAD MARKETING -->
  <text x="400" y="295" font-family="Arial, sans-serif" font-size="32" font-weight="300" letter-spacing="14" fill="#888888" text-anchor="middle">
    PREMIER <tspan fill="#FFFFFF" font-weight="700">LEAD</tspan> MARKETING
  </text>
  
  <!-- Smooth Infinity Symbol -->
  <g transform="translate(400, 370)">
    <path d="M -60 0 
             C -60 -20, -45 -30, -30 -30 
             C -15 -30, -5 -20, 0 -10
             C 5 0, 10 8, 15 12
             C 20 16, 25 18, 30 18
             C 40 18, 50 10, 50 0
             C 50 -10, 40 -18, 30 -18
             C 20 -18, 10 -10, 5 0
             C 0 10, -5 18, -10 24
             C -15 30, -25 35, -35 35
             C -45 35, -55 25, -55 15
             C -55 5, -50 -2, -40 -5
             C -30 -8, -20 -5, -15 0
             C -10 5, -5 10, 0 10
             C 5 10, 15 5, 20 0
             C 25 -5, 30 -10, 35 -12
             C 40 -14, 45 -15, 50 -15
             C 60 -15, 68 -8, 68 0
             C 68 8, 62 15, 52 18
             C 42 21, 32 18, 25 12
             C 18 6, 12 0, 5 -5
             C -2 -10, -10 -15, -20 -18
             C -30 -21, -40 -20, -48 -15
             C -56 -10, -60 -5, -60 0 Z" 
          fill="url(#infinityGradient)" 
          opacity="0.95"/>
  </g>
</svg>
