<?xml version="1.0" encoding="UTF-8"?>
<svg width="400" height="200" viewBox="0 0 400 200" fill="none" xmlns="http://www.w3.org/2000/svg">
  <defs>
    <linearGradient id="plmSilver" x1="0%" y1="0%" x2="0%" y2="100%">
      <stop offset="0%" style="stop-color:#FFFFFF;stop-opacity:1" />
      <stop offset="50%" style="stop-color:#D0D0D0;stop-opacity:1" />
      <stop offset="100%" style="stop-color:#808080;stop-opacity:1" />
    </linearGradient>
    <linearGradient id="infinityBlue" x1="0%" y1="50%" x2="100%" y2="50%">
      <stop offset="0%" style="stop-color:#00D4FF;stop-opacity:1" />
      <stop offset="50%" style="stop-color:#0099FF;stop-opacity:1" />
      <stop offset="100%" style="stop-color:#0066CC;stop-opacity:1" />
    </linearGradient>
  </defs>
  
  <!-- PLM Text -->
  <text x="200" y="100" font-family="Impact, Arial Black, sans-serif" font-size="90" font-weight="900" fill="url(#plmSilver)" text-anchor="middle">
    PLM
  </text>
  
  <!-- Infinity Symbol Below -->
  <g transform="translate(200, 150)">
    <path d="M -30 0 C -30 -10, -22 -15, -15 -15 C -8 -15, -2 -10, 0 -5 C 2 0, 5 4, 8 6 C 10 8, 13 9, 15 9 C 20 9, 25 5, 25 0 C 25 -5, 20 -9, 15 -9 C 10 -9, 5 -5, 2 0 C 0 5, -2 9, -5 12 C -8 15, -13 18, -18 18 C -23 18, -28 13, -28 8 C -28 3, -25 -1, -20 -2 C -15 -4, -10 -2, -7 0 C -5 2, -2 5, 0 5 C 2 5, 7 2, 10 0 C 13 -2, 15 -5, 18 -6 C 20 -7, 23 -8, 25 -8 C 30 -8, 34 -4, 34 0 C 34 4, 31 8, 26 9 C 21 11, 16 9, 13 6 C 9 3, 6 0, 2 -2 C -1 -5, -5 -8, -10 -9 C -15 -11, -20 -10, -24 -8 C -28 -5, -30 -2, -30 0 Z" 
          fill="url(#infinityBlue)" 
          opacity="0.95"
          transform="scale(1.5)"/>
  </g>
</svg>
